<?xml version="1.0" encoding="UTF-8"?>
<svg id="Calque_1" data-name="Calque 1" xmlns="http://www.w3.org/2000/svg" viewBox="0 0 53.8 53.8">
  <defs>
    <style>
      .cls-1 {
        fill: #fff;
      }

      .cls-2 {
        fill: #cd161a;
      }
    </style>
  </defs>
  <rect class="cls-2" width="53.8" height="53.8"/>
  <path class="cls-1" d="m8.35,48.2V4.83h6.24l14.19,21.94c3.28,5.08,5.84,9.65,7.95,14.09l.13-.06c-.53-5.79-.66-11.07-.66-17.82V4.83h5.39v43.37h-5.78l-14.05-22.01c-3.09-4.83-6.04-9.78-8.27-14.48l-.2.06c.33,5.47.46,10.68.46,17.89v18.53h-5.39Z"/>
  <path class="cls-1" d="m44.26,46.77c0-1.29.87-2.2,2.09-2.2s2.06.91,2.06,2.2-.8,2.2-2.09,2.2c-1.22,0-2.06-.94-2.06-2.2Z"/>
</svg>